<svg width="164" height="31" viewBox="0 0 164 31" fill="none" xmlns="http://www.w3.org/2000/svg">
<path d="M8.856 23.144C7.608 23.144 6.48 22.856 5.472 22.28C4.464 21.704 3.664 20.92 3.072 19.928C2.496 18.936 2.192 17.816 2.16 16.568V4.976C2.16 4.752 2.224 4.576 2.352 4.448C2.496 4.32 2.672 4.256 2.88 4.256C3.104 4.256 3.28 4.32 3.408 4.448C3.536 4.576 3.6 4.752 3.6 4.976V12.464C4.112 11.632 4.824 10.968 5.736 10.472C6.664 9.976 7.704 9.728 8.856 9.728C10.136 9.728 11.28 10.024 12.288 10.616C13.312 11.192 14.112 11.984 14.688 12.992C15.28 14 15.576 15.144 15.576 16.424C15.576 17.704 15.28 18.856 14.688 19.88C14.112 20.888 13.312 21.688 12.288 22.28C11.28 22.856 10.136 23.144 8.856 23.144ZM8.856 21.8C9.864 21.8 10.76 21.568 11.544 21.104C12.344 20.624 12.976 19.984 13.44 19.184C13.904 18.368 14.136 17.448 14.136 16.424C14.136 15.4 13.904 14.488 13.44 13.688C12.976 12.888 12.344 12.256 11.544 11.792C10.76 11.312 9.864 11.072 8.856 11.072C7.864 11.072 6.968 11.312 6.168 11.792C5.368 12.256 4.736 12.888 4.272 13.688C3.824 14.488 3.6 15.4 3.6 16.424C3.6 17.448 3.824 18.368 4.272 19.184C4.736 19.984 5.368 20.624 6.168 21.104C6.968 21.568 7.864 21.8 8.856 21.8ZM47.8781 23.144C46.5981 23.144 45.4461 22.856 44.4221 22.28C43.4141 21.688 42.6141 20.888 42.0221 19.88C41.4461 18.856 41.1581 17.712 41.1581 16.448C41.1581 15.168 41.4461 14.024 42.0221 13.016C42.6141 11.992 43.4141 11.192 44.4221 10.616C45.4461 10.024 46.5981 9.728 47.8781 9.728C49.1581 9.728 50.3021 10.024 51.3101 10.616C52.3181 11.192 53.1101 11.992 53.6861 13.016C54.2781 14.024 54.5741 15.168 54.5741 16.448C54.5741 17.712 54.2781 18.856 53.6861 19.88C53.1101 20.888 52.3181 21.688 51.3101 22.28C50.3021 22.856 49.1581 23.144 47.8781 23.144ZM47.8781 21.8C48.8861 21.8 49.7821 21.568 50.5661 21.104C51.3661 20.624 51.9901 19.984 52.4381 19.184C52.9021 18.368 53.1341 17.448 53.1341 16.424C53.1341 15.416 52.9021 14.512 52.4381 13.712C51.9901 12.896 51.3661 12.256 50.5661 11.792C49.7821 11.312 48.8861 11.072 47.8781 11.072C46.8861 11.072 45.9901 11.312 45.1901 11.792C44.3901 12.256 43.7581 12.896 43.2941 13.712C42.8301 14.512 42.5981 15.424 42.5981 16.448C42.5981 17.456 42.8301 18.368 43.2941 19.184C43.7581 19.984 44.3901 20.624 45.1901 21.104C45.9901 21.568 46.8861 21.8 47.8781 21.8ZM62.0072 18.896L61.1432 17.936L69.9272 9.944C70.0872 9.816 70.2392 9.752 70.3832 9.752C70.5432 9.752 70.6952 9.832 70.8392 9.992C70.9832 10.152 71.0552 10.312 71.0552 10.472C71.0552 10.632 70.9752 10.776 70.8152 10.904L62.0072 18.896ZM61.7672 23C61.5592 23 61.3832 22.936 61.2392 22.808C61.1112 22.664 61.0472 22.488 61.0472 22.28V4.976C61.0472 4.752 61.1112 4.576 61.2392 4.448C61.3832 4.32 61.5592 4.256 61.7672 4.256C61.9912 4.256 62.1672 4.32 62.2952 4.448C62.4232 4.576 62.4872 4.752 62.4872 4.976V22.28C62.4872 22.488 62.4232 22.664 62.2952 22.808C62.1672 22.936 61.9912 23 61.7672 23ZM70.8632 22.88C70.7032 23.024 70.5352 23.08 70.3592 23.048C70.1992 23.032 70.0552 22.944 69.9272 22.784L64.2392 15.824L65.2712 14.984L70.9592 21.944C71.0872 22.104 71.1432 22.264 71.1272 22.424C71.1272 22.584 71.0392 22.736 70.8632 22.88ZM95.7804 23C95.5724 23 95.3964 22.936 95.2524 22.808C95.1244 22.664 95.0604 22.488 95.0604 22.28V15.344C95.0604 14.112 94.7324 13.104 94.0764 12.32C93.4364 11.536 92.5964 11.144 91.5564 11.144C90.4524 11.144 89.5484 11.512 88.8444 12.248C88.1564 12.968 87.8284 13.944 87.8604 15.176H86.4204C86.4524 14.072 86.6924 13.112 87.1404 12.296C87.5884 11.48 88.1964 10.848 88.9644 10.4C89.7324 9.936 90.5964 9.704 91.5564 9.704C92.5324 9.704 93.3884 9.944 94.1244 10.424C94.8604 10.904 95.4364 11.568 95.8524 12.416C96.2844 13.264 96.5004 14.24 96.5004 15.344V22.28C96.5004 22.488 96.4364 22.664 96.3084 22.808C96.1804 22.936 96.0044 23 95.7804 23ZM78.4284 23C78.2204 23 78.0444 22.936 77.9004 22.808C77.7724 22.664 77.7084 22.488 77.7084 22.28V10.592C77.7084 10.368 77.7724 10.192 77.9004 10.064C78.0444 9.936 78.2204 9.872 78.4284 9.872C78.6524 9.872 78.8284 9.936 78.9564 10.064C79.0844 10.192 79.1484 10.368 79.1484 10.592V22.28C79.1484 22.488 79.0844 22.664 78.9564 22.808C78.8284 22.936 78.6524 23 78.4284 23ZM87.1404 23C86.9324 23 86.7564 22.936 86.6124 22.808C86.4844 22.664 86.4204 22.488 86.4204 22.28V15.344C86.4204 14.112 86.0924 13.104 85.4364 12.32C84.7964 11.536 83.9564 11.144 82.9164 11.144C81.8124 11.144 80.9084 11.496 80.2044 12.2C79.5004 12.904 79.1484 13.816 79.1484 14.936H77.9484C77.9964 13.912 78.2364 13.008 78.6684 12.224C79.1164 11.44 79.7084 10.824 80.4444 10.376C81.1804 9.928 82.0044 9.704 82.9164 9.704C83.8924 9.704 84.7484 9.944 85.4844 10.424C86.2204 10.904 86.7964 11.568 87.2124 12.416C87.6444 13.264 87.8604 14.24 87.8604 15.344V22.28C87.8604 22.488 87.7964 22.664 87.6684 22.808C87.5404 22.936 87.3644 23 87.1404 23ZM105.647 28.688C105.551 28.688 105.439 28.664 105.311 28.616C104.879 28.44 104.759 28.144 104.951 27.728L113.015 10.256C113.207 9.856 113.503 9.736 113.903 9.896C114.335 10.072 114.455 10.368 114.263 10.784L106.199 28.256C106.055 28.544 105.871 28.688 105.647 28.688ZM108.191 22.688C107.983 22.784 107.799 22.808 107.639 22.76C107.479 22.712 107.351 22.584 107.255 22.376L101.999 10.856C101.903 10.648 101.879 10.464 101.927 10.304C101.975 10.144 102.103 10.016 102.311 9.92C102.519 9.824 102.703 9.8 102.863 9.848C103.023 9.896 103.151 10.024 103.247 10.232L108.503 21.752C108.599 21.96 108.623 22.144 108.575 22.304C108.527 22.464 108.399 22.592 108.191 22.688ZM124.972 23.144C123.724 23.144 122.604 22.848 121.612 22.256C120.636 21.664 119.86 20.864 119.284 19.856C118.724 18.848 118.444 17.712 118.444 16.448C118.444 15.168 118.708 14.024 119.236 13.016C119.764 12.008 120.492 11.216 121.42 10.64C122.348 10.048 123.412 9.752 124.612 9.752C125.636 9.752 126.572 9.952 127.42 10.352C128.268 10.736 129.004 11.328 129.628 12.128C129.756 12.288 129.804 12.456 129.772 12.632C129.74 12.808 129.636 12.952 129.46 13.064C129.316 13.176 129.156 13.224 128.98 13.208C128.804 13.176 128.652 13.08 128.524 12.92C127.5 11.704 126.196 11.096 124.612 11.096C123.668 11.096 122.836 11.328 122.116 11.792C121.412 12.256 120.86 12.888 120.46 13.688C120.076 14.488 119.884 15.408 119.884 16.448C119.884 17.456 120.1 18.368 120.532 19.184C120.964 19.984 121.556 20.624 122.308 21.104C123.076 21.568 123.964 21.8 124.972 21.8C125.628 21.8 126.244 21.704 126.82 21.512C127.412 21.32 127.924 21.024 128.356 20.624C128.5 20.496 128.66 20.424 128.836 20.408C129.012 20.392 129.164 20.448 129.292 20.576C129.452 20.72 129.532 20.888 129.532 21.08C129.548 21.256 129.484 21.408 129.34 21.536C128.172 22.608 126.716 23.144 124.972 23.144ZM142.27 23.144C140.99 23.144 139.838 22.856 138.814 22.28C137.806 21.688 137.006 20.888 136.414 19.88C135.838 18.856 135.55 17.712 135.55 16.448C135.55 15.168 135.838 14.024 136.414 13.016C137.006 11.992 137.806 11.192 138.814 10.616C139.838 10.024 140.99 9.728 142.27 9.728C143.55 9.728 144.694 10.024 145.702 10.616C146.71 11.192 147.502 11.992 148.078 13.016C148.67 14.024 148.966 15.168 148.966 16.448L148.366 17.408C148.366 18.496 148.094 19.472 147.55 20.336C147.022 21.2 146.302 21.888 145.39 22.4C144.478 22.896 143.438 23.144 142.27 23.144ZM142.27 21.8C143.278 21.8 144.174 21.568 144.958 21.104C145.758 20.624 146.382 19.984 146.83 19.184C147.294 18.368 147.526 17.456 147.526 16.448C147.526 15.424 147.294 14.512 146.83 13.712C146.382 12.896 145.758 12.256 144.958 11.792C144.174 11.312 143.278 11.072 142.27 11.072C141.278 11.072 140.382 11.312 139.582 11.792C138.782 12.256 138.15 12.896 137.686 13.712C137.222 14.512 136.99 15.424 136.99 16.448C136.99 17.456 137.222 18.368 137.686 19.184C138.15 19.984 138.782 20.624 139.582 21.104C140.382 21.568 141.278 21.8 142.27 21.8ZM148.246 23C148.038 23 147.862 22.936 147.718 22.808C147.59 22.664 147.526 22.488 147.526 22.28V17.888L147.982 16.448H148.966V22.28C148.966 22.488 148.902 22.664 148.774 22.808C148.646 22.936 148.47 23 148.246 23ZM155.919 14.984C156.015 13.96 156.295 13.056 156.759 12.272C157.223 11.472 157.823 10.848 158.559 10.4C159.295 9.952 160.111 9.728 161.007 9.728C161.615 9.728 162.087 9.8 162.423 9.944C162.759 10.088 162.887 10.344 162.807 10.712C162.759 10.952 162.647 11.096 162.471 11.144C162.295 11.192 162.079 11.2 161.823 11.168C161.583 11.12 161.311 11.096 161.007 11.096C160.207 11.096 159.495 11.264 158.871 11.6C158.247 11.936 157.759 12.4 157.407 12.992C157.055 13.568 156.879 14.232 156.879 14.984H155.919ZM156.159 23C155.951 23 155.775 22.936 155.631 22.808C155.503 22.664 155.439 22.488 155.439 22.28V10.592C155.439 10.368 155.503 10.192 155.631 10.064C155.775 9.936 155.951 9.872 156.159 9.872C156.383 9.872 156.559 9.936 156.687 10.064C156.815 10.192 156.879 10.368 156.879 10.592V22.28C156.879 22.488 156.815 22.664 156.687 22.808C156.559 22.936 156.383 23 156.159 23Z" fill="black"/>
<g clip-path="url(#clip0_1_2)">
<path d="M28.5 10C24.9104 10 22 12.9104 22 16.5C22 20.0896 24.9104 23 28.5 23C32.0896 23 35 20.0896 35 16.5C35 12.9104 32.0896 10 28.5 10ZM28.5 11.625C30.6153 11.625 32.402 12.9876 33.0768 14.875H23.9232C24.598 12.9876 26.3847 11.625 28.5 11.625ZM28.5 17.3125C28.3918 17.3149 28.2842 17.2958 28.1835 17.256C28.0828 17.2163 27.9911 17.1569 27.9137 17.0813C27.8363 17.0056 27.7748 16.9153 27.7328 16.8155C27.6908 16.7158 27.6692 16.6086 27.6691 16.5004C27.6691 16.3922 27.6907 16.285 27.7326 16.1853C27.7746 16.0855 27.8361 15.9951 27.9134 15.9194C27.9908 15.8438 28.0825 15.7843 28.1831 15.7445C28.2838 15.7048 28.3914 15.6855 28.4996 15.6879C28.7119 15.6926 28.9139 15.7802 29.0624 15.932C29.2109 16.0838 29.2941 16.2877 29.2941 16.5C29.2942 16.7123 29.2111 16.9163 29.0627 17.0681C28.9143 17.22 28.7123 17.3077 28.5 17.3125ZM23.625 16.5C25.8452 16.5 27.6432 18.6393 27.681 21.2925C25.3832 20.8989 23.625 18.9074 23.625 16.5ZM29.319 21.2925C29.3568 18.6393 31.1548 16.5 33.375 16.5C33.375 18.9074 31.6168 20.8989 29.319 21.2925Z" fill="#00BBF9"/>
</g>
<defs>
<clipPath id="clip0_1_2">
<rect width="13" height="13" fill="white" transform="translate(22 10)"/>
</clipPath>
</defs>
</svg>
